# xmcd CD database file
#
# Track frame offsets:
#	150
#	13397
#	28245
#	38712
#	58102
#	74565
#	95047
#	111727
#	129005
#	139090
#	158090
#	181050
#	198097
#	219117
#	235865
#	265337
#	280507
#
# Disc length: 4084 seconds
#
# Revision: 1
# Processed by: cddbd v1.4PL0 Copyright (c) Steve Scherf et al.
# Submitted via: CDex 1.50
#
DISCID=f40ff211
DTITLE=Koji Ueno Quintetto - Tropici di Vetro
DYEAR=2003
DGENRE=Jazz
TTITLE0=Tropici di Vetro 
TTITLE1=Perpetuum Mobile
TTITLE2=Ionospheric Call 
TTITLE3=Time to Forget/Time to Forgive
TTITLE4=Gyration
TTITLE5=Histoire
TTITLE6=Fugue on the Theme of Erik Satie 
TTITLE7=Escape from Soft Clock 
TTITLE8=Beguine Magnetica 
TTITLE9=Verdance
TTITLE10=Very Low Frequency 
TTITLE11=Civil Servant or Evil Serpent 
TTITLE12=La Maledizione del Faraone 
TTITLE13=Airplane 1985 
TTITLE14=Sledding 
TTITLE15=Rosa
TTITLE16=Jerusalem (a.k.a. Straight off the Windrush) 
EXTD=YEAR: 2003
EXTT0=
EXTT1=
EXTT2=
EXTT3=
EXTT4=
EXTT5=
EXTT6=
EXTT7=
EXTT8=
EXTT9=
EXTT10=
EXTT11=
EXTT12=
EXTT13=
EXTT14=
EXTT15=
EXTT16=
PLAYORDER=
